<?xml version="1.0" standalone="no"?>
<!DOCTYPE svg PUBLIC "-//W3C//DTD SVG 20010904//EN"
 "http://www.w3.org/TR/2001/REC-SVG-20010904/DTD/svg10.dtd">
<svg version="1.0" xmlns="http://www.w3.org/2000/svg"
 width="300.000000pt" height="300.000000pt" viewBox="0 0 300.000000 300.000000"
 preserveAspectRatio="xMidYMid meet">
<metadata>
Created by potrace 1.10, written by Peter Selinger 2001-2011
</metadata>
<g transform="translate(0.000000,300.000000) scale(0.100000,-0.100000)"
fill="#000000" stroke="none">
<path d="M1437 2709 c-45 -27 -74 -74 -206 -336 -133 -266 -158 -330 -128
-321 6 2 82 141 167 307 85 167 163 308 173 313 30 16 86 12 109 -8 11 -11 66
-84 122 -164 257 -364 318 -450 322 -450 3 0 181 -18 397 -40 262 -27 399 -45
413 -55 12 -8 27 -30 34 -49 14 -45 -2 -84 -61 -149 -43 -47 -45 -47 -82 -37
-20 6 -42 8 -47 5 -6 -3 -14 -4 -19 -1 -5 3 20 36 55 73 35 38 64 70 64 73 0
3 -183 25 -406 48 -224 23 -408 43 -409 44 -1 2 -62 89 -135 193 -74 105 -168
238 -209 297 -42 59 -81 114 -86 123 -8 14 -34 -30 -127 -217 -114 -230 -117
-235 -155 -246 -52 -16 -113 -67 -106 -90 2 -10 -3 -24 -11 -32 -14 -11 -20
-10 -36 5 -18 16 -26 16 -81 6 -34 -7 -82 -19 -108 -26 -25 -8 -149 -39 -276
-70 -126 -31 -251 -63 -278 -71 -85 -28 -127 -114 -92 -188 17 -35 166 -169
227 -205 15 -9 30 -21 32 -28 3 -6 -16 -176 -41 -377 -51 -404 -51 -405 11
-425 17 -6 71 -13 119 -17 82 -6 89 -5 112 16 24 23 29 36 40 122 3 27 10 48
14 48 4 0 15 -15 24 -32 9 -18 24 -45 34 -60 16 -26 16 -28 -2 -48 -16 -17
-20 -40 -23 -118 -5 -115 9 -161 60 -192 60 -38 110 -25 303 76 166 87 171 91
202 152 1 2 78 -2 172 -9 189 -14 216 -9 228 40 9 39 12 42 36 29 23 -12 243
-90 465 -164 155 -52 187 -52 239 3 56 59 58 41 -68 618 -24 109 -38 180 -36
181 44 16 83 21 99 13 41 -22 128 10 128 47 0 25 21 25 41 0 47 -60 152 -74
191 -27 21 27 16 41 -35 109 l-40 53 21 38 c26 46 30 132 7 151 -30 25 -27 48
12 91 59 64 73 90 73 139 0 53 -27 103 -67 123 -37 19 -57 22 -413 57 -168 17
-322 33 -343 36 -47 7 -61 25 -294 357 -103 146 -180 246 -199 258 -34 20 -98
25 -127 8z m136 -302 c34 -47 68 -94 74 -104 81 -119 230 -325 254 -350 36
-39 19 -36 399 -73 168 -17 318 -34 333 -38 l29 -7 -29 -40 c-16 -22 -32 -47
-35 -56 -4 -11 -24 -18 -65 -22 -81 -8 -93 -25 -93 -133 0 -45 -4 -85 -9 -89
-9 -5 -30 44 -60 136 -22 69 -87 102 -157 79 -41 -14 -52 -34 -120 -233 -44
-127 -51 -162 -36 -183 16 -24 55 -36 98 -29 24 3 44 4 44 1 0 -4 29 -142 65
-308 36 -166 65 -310 65 -320 0 -10 -6 -18 -12 -17 -29 1 -573 198 -571 206 1
5 4 33 7 63 4 48 2 55 -24 81 l-28 29 24 6 c39 10 64 50 64 104 0 72 -22 87
-140 96 -52 4 -102 8 -110 10 -8 1 -28 3 -44 3 -37 1 -25 14 29 31 131 41 204
128 220 262 8 62 9 62 73 42 9 -2 12 -36 12 -124 0 -118 1 -122 26 -145 35
-33 84 -33 121 -1 27 24 28 28 33 146 l5 122 38 13 c66 23 86 75 47 125 -18
24 -22 25 -173 28 l-154 3 -31 -26 -32 -27 -42 34 c-57 45 -77 55 -192 97
-102 38 -135 63 -106 81 43 28 162 1 247 -55 91 -60 127 -35 137 98 6 76 5 79
-21 106 -18 18 -60 38 -118 57 -76 24 -107 28 -197 29 -69 0 -108 4 -108 11 0
13 164 339 180 360 15 17 8 25 83 -79z m51 -368 l98 -32 -6 -60 c-3 -33 -6
-75 -6 -93 0 -41 -12 -42 -52 -8 -63 52 -128 77 -213 82 -71 4 -83 2 -107 -18
-19 -15 -28 -31 -28 -51 0 -37 33 -58 145 -95 44 -15 101 -37 126 -50 185 -92
162 -337 -40 -415 -110 -44 -298 -27 -443 38 -53 24 -58 29 -54 52 3 14 8 56
12 94 3 37 11 67 17 67 6 0 25 -13 42 -29 16 -17 59 -44 95 -62 53 -26 80 -33
145 -37 71 -4 83 -2 108 18 34 27 36 71 5 99 -12 12 -65 35 -117 52 -193 62
-253 122 -252 251 0 113 74 194 208 228 72 18 210 5 317 -31z m-567 -73 c-3
-8 -11 -32 -18 -54 l-12 -40 -266 -67 c-146 -37 -296 -75 -333 -84 -38 -9 -68
-18 -68 -21 0 -3 21 -23 48 -43 106 -83 105 -81 97 -147 l-7 -59 -108 92
c-107 91 -130 120 -130 158 0 32 28 77 52 86 21 7 720 188 742 192 4 0 6 -5 3
-13z m-1 -153 c20 -90 28 -107 70 -149 45 -46 131 -92 214 -114 92 -25 124
-56 81 -80 -53 -28 -175 4 -270 71 -30 22 -64 39 -75 39 -38 -1 -58 -44 -64
-137 -5 -81 -4 -86 20 -108 14 -13 47 -34 74 -48 l48 -24 -94 -5 c-52 -3 -103
-8 -112 -12 -12 -6 -23 2 -40 28 -13 19 -38 43 -57 53 l-33 18 6 65 c20 202
20 224 -2 243 -27 24 -216 53 -249 38 -12 -6 -29 -24 -38 -41 -17 -33 -23 -32
-67 12 -22 21 -36 16 287 98 132 33 249 65 260 70 31 13 34 12 41 -17z m1024
-174 l0 -40 -56 2 -56 3 1 -152 2 -152 -51 0 -50 0 0 153 0 153 -59 -4 -58 -4
0 41 0 41 163 0 164 0 0 -41z m292 -134 c33 -93 62 -178 65 -187 5 -16 -2 -18
-45 -18 -51 0 -51 0 -63 40 l-12 41 -61 -3 -61 -3 -9 -37 c-9 -37 -10 -38 -58
-38 -26 0 -48 3 -48 7 0 4 28 90 63 190 l62 184 54 -3 53 -3 60 -170z m354
152 c63 -33 65 -138 4 -176 l-30 -18 65 -75 c36 -42 65 -79 65 -82 0 -3 -26
-6 -58 -6 l-57 0 -54 70 c-34 45 -60 70 -73 70 -18 0 -20 -6 -16 -67 l3 -68
-48 0 -48 0 0 183 c0 100 1 185 1 188 0 14 215 -3 246 -19z m-2031 -12 c112
-12 117 -14 111 -43 -7 -31 -71 -531 -91 -705 -17 -140 -34 -270 -38 -272 -2
-2 -231 26 -233 29 -1 0 4 44 12 96 19 133 114 883 114 899 0 9 9 12 33 8 17
-3 59 -9 92 -12z m1629 -389 c14 -9 26 -24 26 -34 0 -9 32 -167 72 -350 70
-325 71 -333 55 -367 -12 -25 -26 -37 -54 -45 -36 -11 -56 -5 -338 93 -294
102 -300 105 -302 132 -4 51 -28 63 -140 71 -138 9 -134 27 5 21 107 -4 107
-4 422 -115 173 -62 318 -112 323 -112 4 0 6 4 3 9 -6 8 -121 536 -147 669
-11 57 -10 64 7 83 l19 21 12 -30 c6 -16 23 -36 37 -46z m-1465 23 l33 -31
-33 -28 c-46 -39 -63 -39 -55 1 3 17 6 44 6 60 0 36 7 36 49 -2z m468 -48 l33
-6 -24 -30 -24 -30 -24 21 c-12 12 -39 32 -58 43 l-35 22 50 -7 c28 -3 65 -9
82 -13z m-109 -46 l61 -27 -6 -72 c-3 -39 -7 -73 -10 -75 -2 -3 -20 12 -41 32
-126 122 -273 65 -289 -113 -13 -142 79 -232 200 -196 25 8 58 23 73 35 15 11
31 21 37 21 10 0 3 -122 -8 -140 -3 -5 -38 -16 -78 -25 -153 -34 -286 19 -351
140 -30 57 -30 228 2 297 26 59 91 122 145 142 65 24 189 15 265 -19z m357
-15 c66 -5 132 -10 148 -10 26 0 27 -1 27 -59 l0 -59 -37 4 c-21 3 -77 8 -125
12 l-88 8 0 -31 c0 -16 -3 -40 -6 -51 -5 -21 -2 -22 111 -29 l117 -7 -7 -57
c-4 -31 -8 -56 -8 -57 -1 -1 -36 3 -77 7 -41 4 -92 8 -112 8 l-36 1 -4 -69 -3
-70 29 -5 c16 -3 47 -6 70 -6 22 0 65 -3 94 -7 l53 -6 -3 -56 c-2 -33 -7 -55
-14 -54 -6 1 -94 7 -197 14 l-187 13 5 51 c8 71 35 472 35 507 0 28 1 29 48
23 26 -3 101 -10 167 -15z m-387 -150 c66 -44 74 -47 92 -25 25 30 30 14 24
-82 -8 -129 -8 -129 -41 -105 l-27 20 -58 -29 c-63 -32 -105 -36 -146 -15 -71
37 -82 172 -20 242 44 50 95 48 176 -6z m-330 -408 c15 -10 36 -22 46 -26 17
-6 18 -14 12 -76 -3 -39 -5 -70 -3 -70 2 0 54 27 115 60 62 33 119 60 127 60
8 0 35 7 61 16 44 15 48 15 56 -1 6 -9 19 -20 30 -24 17 -6 -14 -26 -164 -103
-102 -53 -193 -97 -204 -98 -44 -5 -66 1 -89 25 -24 23 -25 30 -25 140 0 63 3
115 6 115 3 0 18 -8 32 -18z m181 -41 c11 -7 4 -14 -27 -30 -52 -27 -52 -27
-52 9 0 27 3 30 33 30 17 0 38 -4 46 -9z"/>
<path d="M2241 1519 c-7 -23 -15 -47 -18 -55 -4 -11 5 -14 34 -14 l40 0 -17
50 c-9 28 -19 53 -22 55 -3 3 -10 -13 -17 -36z"/>
<path d="M2570 1560 l0 -50 39 0 c38 0 52 9 64 43 10 27 -26 57 -68 57 l-35 0
0 -50z"/>
</g>
</svg>
